<?xml version="1.0" encoding="UTF-8" standalone="no"?>
<svg width="23px" height="26px" viewBox="0 0 23 26" version="1.1" xmlns="http://www.w3.org/2000/svg" xmlns:xlink="http://www.w3.org/1999/xlink">
    <!-- Generator: Sketch 3.6.1 (26313) - http://www.bohemiancoding.com/sketch -->
    <title>Placeholder</title>
    <desc>Created with Sketch.</desc>
    <defs></defs>
    <g id="Slice" stroke="none" stroke-width="1" fill="none" fill-rule="evenodd" opacity="0.5">
        <g id="Artboard-1" transform="translate(-422.000000, -77.000000)" fill="#FFFFFF">
            <g id="Placeholder" transform="translate(422.000000, 77.000000)">
                <path d="M8.59305556,2.5430207 C7.29483333,3.53627018 6.946,5.10891521 7.00988889,5.94581987 C7.09166667,6.96928726 7.29355556,8.30150284 7.29355556,8.30150284 C7.29355556,8.30150284 6.89361111,8.5248526 6.89361111,9.4235069 C7.03288889,11.6793394 7.76633333,10.7057972 7.91711111,11.6951053 C8.28,14.0783785 9.10927778,13.654014 9.10927778,14.9546978 C9.10927778,17.1211904 8.24038889,18.1341472 5.52766667,19.3349806 C2.806,20.5410693 0,22.0585338 0,24.6861779 L0,26 L23,26 L23,24.6861779 C23,22.0585338 20.1927222,20.5410693 17.4697778,19.3362944 C14.7570556,18.1354611 13.8907222,17.1238181 13.8907222,14.9560116 C13.8907222,13.6553278 14.7174444,14.0796923 15.0816111,11.6964191 C15.2336667,10.7071111 15.9658333,11.6806532 16.1076667,9.42482072 C16.1076667,8.52616642 15.7064444,8.30281667 15.7064444,8.30281667 C15.7064444,8.30281667 15.9083333,6.97060108 15.9888333,5.94713369 C16.0718889,4.87374105 15.4802778,2.58243536 13.0499444,1.87954055 C12.6244444,1.43284104 12.3369444,0.722063301 13.6453889,0.00865791496 C10.7831667,-0.129293403 10.1174444,1.41050607 8.59305556,2.5430207 L8.59305556,2.5430207 Z" id="Shape"></path>
            </g>
        </g>
    </g>
</svg>