<?xml version="1.0" encoding="UTF-8"?>
<svg width="29px" height="18px" viewBox="0 0 29 18" version="1.1" xmlns="http://www.w3.org/2000/svg"
>
  <!-- Generator: Sketch 41.2 (35397) - http://www.bohemiancoding.com/sketch -->
  <title>ic-group</title>
  <desc>Created with Sketch.</desc>
  <defs></defs>
  <g id="Symbols" stroke="none" stroke-width="1" fill="none" fill-rule="evenodd">
    <g id="Conversation/group" transform="translate(-26.000000, -31.000000)" fill="#FFFFFF">
      <g id="ic_group" transform="translate(16.000000, 16.000000)">
        <g id="ic-group" transform="translate(10.000000, 15.000000)">
          <path
            d="M19.7727273,7.71428571 C21.9609091,7.71428571 23.7140909,5.99142857 23.7140909,3.85714286 C23.7140909,1.72285714 21.9609091,0 19.7727273,0 C17.5845455,0 15.8181818,1.72285714 15.8181818,3.85714286 C15.8181818,5.99142857 17.5845455,7.71428571 19.7727273,7.71428571 L19.7727273,7.71428571 Z M9.22727273,7.71428571 C11.4154545,7.71428571 13.1686364,5.99142857 13.1686364,3.85714286 C13.1686364,1.72285714 11.4154545,0 9.22727273,0 C7.03909091,0 5.27272727,1.72285714 5.27272727,3.85714286 C5.27272727,5.99142857 7.03909091,7.71428571 9.22727273,7.71428571 L9.22727273,7.71428571 Z M9.22727273,10.2857143 C6.15590909,10.2857143 -3.55271368e-15,11.79 -3.55271368e-15,14.7857143 L-3.55271368e-15,18 L18.4545455,18 L18.4545455,14.7857143 C18.4545455,11.79 12.2986364,10.2857143 9.22727273,10.2857143 L9.22727273,10.2857143 Z M19.7727273,10.2857143 C19.3904545,10.2857143 18.9554545,10.3114286 18.4940909,10.35 C20.0231818,11.43 21.0909091,12.8828571 21.0909091,14.7857143 L21.0909091,18 L29,18 L29,14.7857143 C29,11.79 22.8440909,10.2857143 19.7727273,10.2857143 L19.7727273,10.2857143 Z"></path>
        </g>
      </g>
    </g>
  </g>
</svg>
