<?xml version="1.0" encoding="UTF-8"?>
<svg width="18px" height="18px" viewBox="0 0 18 18" version="1.1" xmlns="http://www.w3.org/2000/svg"
>
  <!-- Generator: Sketch 41.2 (35397) - http://www.bohemiancoding.com/sketch -->
  <title>ic_exit_to_app</title>
  <desc>Created with Sketch.</desc>
  <defs></defs>
  <g id="Screens" stroke="none" stroke-width="1" fill="none" fill-rule="evenodd">
    <g id="Chats" transform="translate(-523.000000, -31.000000)">
      <g id="ic_exit_to_app" transform="translate(520.000000, 28.000000)">
        <polygon id="Bounds" points="0 0 24 0 24 24 0 24"></polygon>
        <path
          d="M10.09,15.59 L11.5,17 L16.5,12 L11.5,7 L10.09,8.41 L12.67,11 L3,11 L3,13 L12.67,13 L10.09,15.59 L10.09,15.59 Z M19,3 L5,3 C3.89,3 3,3.9 3,5 L3,9 L5,9 L5,5 L19,5 L19,19 L5,19 L5,15 L3,15 L3,19 C3,20.1 3.89,21 5,21 L19,21 C20.1,21 21,20.1 21,19 L21,5 C21,3.9 20.1,3 19,3 L19,3 Z"
          id="Icon" fill="#778594" opacity="0.8"></path>
      </g>
    </g>
  </g>
</svg>
