<?xml version="1.0" encoding="UTF-8"?>
<svg width="36px" height="36px" viewBox="0 0 36 36" version="1.1" xmlns="http://www.w3.org/2000/svg"
>
  <!-- Generator: Sketch 41.2 (35397) - http://www.bohemiancoding.com/sketch -->
  <title>qb-logo</title>
  <desc>Created with Sketch.</desc>
  <defs></defs>
  <g id="Screens" stroke="none" stroke-width="1" fill="none" fill-rule="evenodd">
    <g id="Login" transform="translate(-568.000000, -247.000000)">
      <g id="qb-logo" transform="translate(568.000000, 247.000000)">
        <path
          d="M8.47650677,6.728 C8.47650677,7.64377778 7.72650535,8.39288889 6.80963917,8.39288889 L1.80925885,8.39288889 C0.892615165,8.39288889 0.142613739,7.64377778 0.142613739,6.728 L0.142613739,1.73355556 C0.142613739,0.818 0.892615165,0.0688888889 1.80925885,0.0688888889 L6.80963917,0.0688888889 C7.72650535,0.0688888889 8.47650677,0.818 8.47650677,1.73355556 L8.47650677,6.728"
          id="Fill-10" fill="#046AD0"></path>
        <path
          d="M8.47650677,18.3815556 C8.47650677,19.2971111 7.72650535,20.0462222 6.80963917,20.0462222 L1.80925885,20.0462222 C0.892615165,20.0462222 0.142613739,19.2971111 0.142613739,18.3815556 L0.142613739,13.3871111 C0.142613739,12.4715556 0.892615165,11.7224444 1.80925885,11.7224444 L6.80963917,11.7224444 C7.72650535,11.7224444 8.47650677,12.4715556 8.47650677,13.3871111 L8.47650677,18.3815556"
          id="Fill-11" fill="#046AD0"></path>
        <path
          d="M8.47650677,30.0348889 C8.47650677,30.9504444 7.72650535,31.6995556 6.80963917,31.6995556 L1.80925885,31.6995556 C0.892615165,31.6995556 0.142613739,30.9504444 0.142613739,30.0348889 L0.142613739,25.0406667 C0.142613739,24.1248889 0.892615165,23.3757778 1.80925885,23.3757778 L6.80963917,23.3757778 C7.72650535,23.3757778 8.47650677,24.1248889 8.47650677,25.0406667 L8.47650677,30.0348889"
          id="Fill-12" fill="#046AD0"></path>
        <path
          d="M20.14369,6.728 C20.14369,7.64377778 19.3936886,8.39288889 18.4768224,8.39288889 L13.4766646,8.39288889 C12.5600209,8.39288889 11.8100195,7.64377778 11.8100195,6.728 L11.8100195,1.73355556 C11.8100195,0.818 12.5600209,0.0688888889 13.4766646,0.0688888889 L18.4768224,0.0688888889 C19.3936886,0.0688888889 20.14369,0.818 20.14369,1.73355556 L20.14369,6.728"
          id="Fill-13" fill="#046AD0"></path>
        <path
          d="M20.14369,30.0348889 C20.14369,30.9504444 19.3936886,31.6995556 18.4768224,31.6995556 L13.4766646,31.6995556 C12.5600209,31.6995556 11.8100195,30.9504444 11.8100195,30.0348889 L11.8100195,25.0406667 C11.8100195,24.1248889 12.5600209,23.3757778 13.4766646,23.3757778 L18.4768224,23.3757778 C19.3936886,23.3757778 20.14369,24.1248889 20.14369,25.0406667 L20.14369,30.0348889"
          id="Fill-14" fill="#046AD0"></path>
        <path
          d="M31.8110958,6.728 C31.8110958,7.64377778 31.0608719,8.39288889 30.1442282,8.39288889 L25.1440704,8.39288889 C24.2274267,8.39288889 23.4772028,7.64377778 23.4772028,6.728 L23.4772028,1.73355556 C23.4772028,0.818 24.2274267,0.0688888889 25.1440704,0.0688888889 L30.1442282,0.0688888889 C31.0608719,0.0688888889 31.8110958,0.818 31.8110958,1.73355556 L31.8110958,6.728"
          id="Fill-15" fill="#046AD0"></path>
        <path
          d="M31.8110958,18.3815556 C31.8110958,19.2971111 31.0608719,20.0462222 30.1442282,20.0462222 L25.1440704,20.0462222 C24.2274267,20.0462222 23.4772028,19.2971111 23.4772028,18.3815556 L23.4772028,13.3871111 C23.4772028,12.4715556 24.2274267,11.7224444 25.1440704,11.7224444 L30.1442282,11.7224444 C31.0608719,11.7224444 31.8110958,12.4715556 31.8110958,13.3871111 L31.8110958,18.3815556"
          id="Fill-16" fill="#046AD0"></path>
        <path
          d="M35.9778198,34.1968889 C35.9778198,35.1126667 35.2278184,35.8617778 34.3111747,35.8617778 L25.1440704,35.8617778 C24.2274267,35.8617778 23.4772028,35.1126667 23.4772028,34.1968889 L23.4772028,25.0406667 C23.4772028,24.1248889 24.2274267,23.3757778 25.1440704,23.3757778 L34.3111747,23.3757778 C35.2278184,23.3757778 35.9778198,24.1248889 35.9778198,25.0406667 L35.9778198,34.1968889"
          id="Fill-17" fill="#4AD24D"></path>
      </g>
    </g>
  </g>
</svg>
