<?xml version="1.0" encoding="UTF-8" standalone="no"?>
<svg width="41px" height="40px" viewBox="0 0 41 40" version="1.1" xmlns="http://www.w3.org/2000/svg" xmlns:xlink="http://www.w3.org/1999/xlink" xmlns:sketch="http://www.bohemiancoding.com/sketch/ns">
    <!-- Generator: Sketch 3.2.2 (9983) - http://www.bohemiancoding.com/sketch -->
    <title>ava-group</title>
    <desc>Created with Sketch.</desc>
    <defs></defs>
    <g id="Page-1" stroke="none" stroke-width="1" fill="none" fill-rule="evenodd" sketch:type="MSPage">
        <g id="-icons" sketch:type="MSArtboardGroup" transform="translate(-1377.000000, -461.000000)">
            <g id="ava-group" sketch:type="MSLayerGroup" transform="translate(1377.000000, 461.000000)">
                <path d="M0.5,0 L40.5,0 L40.5,40 L0.5,40 L0.5,0 Z" id="Fill-53" fill="#D2D2D1" sketch:type="MSShapeGroup"></path>
                <path d="M17.654,23.437 C16.1,21.513 15.219,19.087 15.219,16.577 C15.219,15.77 15.313,14.985 15.48,14.228 C14.725,13.991 13.922,13.862 13.088,13.862 C8.682,13.862 5.109,17.434 5.109,21.841 C5.109,24.464 6.375,26.79 8.328,28.245 C4.788,30.21 1.947,34.302 0.5,39.477 L0.5,40 L9.253,40 C10.231,32.968 13.273,26.936 17.654,23.437" id="Fill-54" fill="#FFFFFF" sketch:type="MSShapeGroup"></path>
                <path d="M40.5,37.625 C39.028,31.205 35.681,26.08 31.425,23.717 C33.603,22.095 35.014,19.501 35.014,16.577 C35.014,11.663 31.03,7.679 26.116,7.679 C21.202,7.679 17.219,11.663 17.219,16.577 C17.219,19.501 18.629,22.095 20.807,23.717 C16.038,26.365 12.409,32.479 11.284,40 L40.5,40 L40.5,37.625" id="Fill-55" fill="#FFFFFF" sketch:type="MSShapeGroup"></path>
            </g>
        </g>
    </g>
</svg>