<?xml version="1.0" encoding="UTF-8"?>
<svg width="100px" height="100px" viewBox="0 0 56 56" version="1.1" xmlns="http://www.w3.org/2000/svg" xmlns:xlink="http://www.w3.org/1999/xlink">
    <!-- Generator: Sketch 45.2 (43514) - http://www.bohemiancoding.com/sketch -->
    <title>place-placeholder</title>
    <desc>Created with Sketch.</desc>
    <defs></defs>
    <g id="Screens" stroke="none" stroke-width="1" fill="none" fill-rule="evenodd">
        <g id="Home" transform="translate(-16.000000, -332.000000)">
            <g id="place-placeholder" transform="translate(16.000000, 332.000000)">
                <rect id="Rectangle-2" fill="#DDE0E2" x="0" y="0" width="56" height="56"></rect>
                <path d="M28,44 C28,44 16,34.627417 16,24 C16,17.372583 21.372583,12 28,12 C34.627417,12 40,17.372583 40,24 C40,34.627417 28,44 28,44 Z M28,29 C30.7614237,29 33,26.7614237 33,24 C33,21.2385763 30.7614237,19 28,19 C25.2385763,19 23,21.2385763 23,24 C23,26.7614237 25.2385763,29 28,29 Z" id="Combined-Shape" fill="#FFFFFF"></path>
            </g>
        </g>
    </g>
</svg>