<?xml version="1.0" encoding="UTF-8" standalone="no"?>
<svg width="153px" height="34px" viewBox="0 0 153 34" version="1.1" xmlns="http://www.w3.org/2000/svg" xmlns:xlink="http://www.w3.org/1999/xlink" xmlns:sketch="http://www.bohemiancoding.com/sketch/ns">
    <!-- Generator: Sketch 3.3.3 (12072) - http://www.bohemiancoding.com/sketch -->
    <title>Logo_qb</title>
    <desc>Created with Sketch.</desc>
    <defs></defs>
    <g id="Slice" stroke="none" stroke-width="1" fill="none" fill-rule="evenodd" sketch:type="MSPage">
        <g id="Artboard-1" sketch:type="MSArtboardGroup" transform="translate(-61.000000, -61.000000)">
            <g id="Logo_qb" sketch:type="MSLayerGroup" transform="translate(61.000000, 61.000000)">
                <g id="logo_qb-3" sketch:type="MSShapeGroup">
                    <rect id="Rectangle-2" fill="#D8D8D8" x="0" y="0" width="8.0104712" height="8.0952381" rx="1.6"></rect>
                    <rect id="Rectangle-2" fill="#025FCA" x="0" y="0" width="8.0104712" height="8.0952381" rx="1.6"></rect>
                    <rect id="Rectangle-2" fill="#025FCA" x="0" y="10.5238095" width="8.0104712" height="8.0952381" rx="1.6"></rect>
                    <rect id="Rectangle-2" fill="#025FCA" x="10.4136126" y="0" width="8.0104712" height="8.0952381" rx="1.6"></rect>
                    <rect id="Rectangle-3" fill="#025FCA" x="20.8272251" y="0" width="8.0104712" height="8.0952381" rx="1.6"></rect>
                    <rect id="Rectangle-3" fill="#025FCA" x="20.8272251" y="10.5238095" width="8.0104712" height="8.0952381" rx="1.6"></rect>
                    <rect id="Rectangle-6" fill="#025FCA" x="0" y="21.047619" width="8.0104712" height="8.0952381" rx="1.6"></rect>
                    <rect id="Rectangle-5" fill="#025FCA" x="10.4136126" y="21.047619" width="8.0104712" height="8.0952381" rx="1.6"></rect>
                    <rect id="Rectangle-4" fill="#41CC44" x="20.8272251" y="21.047619" width="12.8167539" height="12.952381" rx="1.6"></rect>
                </g>
                <g id="quickblox-3" transform="translate(42.455497, 10.523810)" sketch:type="MSShapeGroup">
                    <g id="Blox" transform="translate(63.110861, 0.000000)" fill="#025FCA">
                        <path d="M0.0911633515,10.0263888 L4.61191913,10.0263888 C6.78857932,10.0263888 8.22573316,9.0850716 8.22573316,7.32888271 C8.22573316,5.96608014 7.43041502,5.30575312 6.28627312,4.91236681 C7.01182652,4.53303001 7.68156812,3.90080201 7.68156812,2.72064308 C7.68156812,2.03221704 7.45832092,1.49833562 7.02577947,1.06280078 C6.46766147,0.500820334 5.58862563,0.191731091 4.47238963,0.191731091 L0.0911633515,0.191731091 L0.0911633515,10.0263888 Z M1.77947029,4.33633686 L1.77947029,1.7231278 L4.24914243,1.7231278 C5.35142548,1.7231278 5.96535527,2.20081117 5.96535527,2.97353428 C5.96535527,3.90080201 5.22584893,4.33633686 4.12356588,4.33633686 L1.77947029,4.33633686 Z M1.77947029,8.49499213 L1.77947029,5.79748601 L4.50029553,5.79748601 C5.85373168,5.79748601 6.50952032,6.28921889 6.50952032,7.11814005 C6.50952032,8.03135827 5.79791988,8.49499213 4.62587208,8.49499213 L1.77947029,8.49499213 Z M13.3363182,10.0263888 L20.1872166,10.0263888 L20.1872166,8.4528436 L15.052531,8.4528436 L15.052531,0.191731091 L13.3363182,0.191731091 L13.3363182,10.0263888 Z M29.2464865,10.194983 C32.2463707,10.194983 34.3672191,7.87681365 34.3672191,5.10905996 C34.3672191,2.31320726 32.2742766,0.023136958 29.2743924,0.023136958 C26.2745081,0.023136958 24.1536597,2.34130628 24.1536597,5.10905996 C24.1536597,7.90491267 26.2466022,10.194983 29.2464865,10.194983 L29.2464865,10.194983 Z M29.2743924,8.60738822 C27.3349323,8.60738822 25.9535903,7.01979347 25.9535903,5.10905996 C25.9535903,3.17022744 27.3070264,1.61073171 29.2464865,1.61073171 C31.1859465,1.61073171 32.5672886,3.19832646 32.5672886,5.10905996 C32.5672886,7.04789249 31.2138524,8.60738822 29.2743924,8.60738822 L29.2743924,8.60738822 Z M38.1801798,10.0263888 L40.1475457,10.0263888 L42.7288415,6.30326841 L45.2961842,10.0263888 L47.319362,10.0263888 L43.7753127,4.99666388 L47.1798325,0.191731091 L45.2124665,0.191731091 L42.7707003,3.71815837 L40.342887,0.191731091 L38.3197093,0.191731091 L41.738182,5.0247629 L38.1801798,10.0263888 Z" id="blox"></path>
                    </g>
                    <g id="quick" fill="#41CC44">
                        <path d="M9.53390559,10.3214286 L10.2873649,9.49250742 L8.98974054,8.41069507 C9.74319984,7.51152636 10.1617883,6.34541694 10.1617883,5.10905996 C10.1617883,2.36940531 8.1665165,0.023136958 5.19453816,0.023136958 C2.22255983,0.023136958 0.199382085,2.39750433 0.199382085,5.10905996 C0.199382085,7.84871462 2.19465393,10.194983 5.16663226,10.194983 C6.38053891,10.194983 7.42701015,9.80159666 8.2502342,9.14126964 L9.53390559,10.3214286 Z M5.19453816,9.16936866 C2.96206617,9.16936866 1.34352398,7.34293222 1.34352398,5.10905996 C1.34352398,2.84708868 2.93416027,1.04875127 5.16663226,1.04875127 C7.39910425,1.04875127 9.01764644,2.8751877 9.01764644,5.10905996 C9.01764644,6.10657525 8.6967286,6.99169445 8.1665165,7.68012049 L6.36658596,6.0363277 L5.62707961,6.86524885 L7.4409631,8.42474458 C6.84098625,8.88837844 6.05962106,9.16936866 5.19453816,9.16936866 Z" id="Path"></path>
                        <path d="M19.5698819,10.1809335 C22.0116482,10.1809335 23.6441433,8.69168529 23.6441433,5.82558503 L23.6441433,0.191731091 L22.5418603,0.191731091 L22.5418603,5.9098821 C22.5418603,8.05945729 21.3977184,9.15531915 19.5977878,9.15531915 C17.7280926,9.15531915 16.6118566,7.96111071 16.6118566,5.83963454 L16.6118566,0.191731091 L15.5095735,0.191731091 L15.5095735,5.9098821 C15.5095735,8.69168529 17.1560216,10.1809335 19.5698819,10.1809335 L19.5698819,10.1809335 Z" id="Path"></path>
                        <path d="M29.5221406,10.0263888 L30.6244236,10.0263888 L30.6244236,0.191731091 L29.5221406,0.191731091 L29.5221406,10.0263888 Z" id="Path"></path>
                        <path d="M41.1208473,10.194983 C42.892872,10.194983 44.009108,9.56275497 45.0276733,8.52309115 L44.3021199,7.75036805 C43.3672723,8.64953675 42.4882364,9.16936866 41.1487532,9.16936866 C38.999999,9.16936866 37.3675038,7.38508076 37.3675038,5.10905996 C37.3675038,2.81898966 38.986046,1.04875127 41.1487532,1.04875127 C42.4742835,1.04875127 43.3951782,1.61073171 44.2184022,2.39750433 L44.9439556,1.61073171 C43.9672491,0.683463978 42.9347308,0.023136958 41.1627062,0.023136958 C38.2883985,0.023136958 36.2233619,2.32725677 36.2233619,5.10905996 C36.2233619,7.96111071 38.3023515,10.194983 41.1208473,10.194983 L41.1208473,10.194983 Z" id="Path"></path>
                        <path d="M50.1243054,10.0263888 L51.2265885,10.0263888 L51.2265885,7.38508076 L53.305578,5.26360459 L57.0589215,10.0263888 L58.4402636,10.0263888 L54.0729902,4.49088148 L58.2588752,0.191731091 L56.8356743,0.191731091 L51.2265885,6.06442672 L51.2265885,0.191731091 L50.1243054,0.191731091 L50.1243054,10.0263888 Z" id="Path"></path>
                    </g>
                </g>
            </g>
        </g>
    </g>
</svg>