<?xml version="1.0" encoding="UTF-8" standalone="no"?>
<svg width="19px" height="19px" viewBox="0 0 19 19" version="1.1" xmlns="http://www.w3.org/2000/svg" xmlns:xlink="http://www.w3.org/1999/xlink" xmlns:sketch="http://www.bohemiancoding.com/sketch/ns">
    <!-- Generator: Sketch 3.3.3 (12072) - http://www.bohemiancoding.com/sketch -->
    <title>ic_videocam_off</title>
    <desc>Created with Sketch.</desc>
    <defs></defs>
    <g id="Slice" stroke="none" stroke-width="1" fill="none" fill-rule="evenodd" sketch:type="MSPage">
        <g id="Artboard-1" sketch:type="MSArtboardGroup" transform="translate(-290.000000, -80.000000)">
            <g id="ic_videocam_off" sketch:type="MSLayerGroup" transform="translate(288.000000, 78.000000)">
                <path d="M0,1.13686838e-13 L24,1.13686838e-13 L24,24 L0,24 L0,1.13686838e-13 Z" id="Bounds" sketch:type="MSShapeGroup"></path>
                <path d="M21,6.5 L17,10.5 L17,7 C17,6.45 16.55,6 16,6 L9.82,6 L21,17.18 L21,6.5 L21,6.5 Z M3.27,2 L2,3.27 L4.73,6 L4,6 C3.45,6 3,6.45 3,7 L3,17 C3,17.55 3.45,18 4,18 L16,18 C16.21,18 16.39,17.92 16.54,17.82 L19.73,21 L21,19.73 L3.27,2 L3.27,2 Z" id="Shape" fill="#808080" sketch:type="MSShapeGroup"></path>
            </g>
        </g>
    </g>
</svg>