<?xml version="1.0" encoding="UTF-8"?>
<svg width="25px" height="22px" viewBox="0 0 25 22" version="1.1" xmlns="http://www.w3.org/2000/svg" xmlns:xlink="http://www.w3.org/1999/xlink">
    <!-- Generator: sketchtool 62 (101010) - https://sketch.com -->
    <title>B4EE9400-5133-45CB-9993-FD2B7900B3AA</title>
    <desc>Created with sketchtool.</desc>
    <g id="Web-Samples" stroke="none" stroke-width="1" fill="none" fill-rule="evenodd">
        <g id="Web-Chat-samples---Selected-1-1-chat" transform="translate(-587.000000, -843.000000)" fill-rule="nonzero">
            <g id="Chat-/-Panels-/-Smile" transform="translate(573.000000, 48.000000)">
                <g transform="translate(1.000000, 783.000000)" id="Icons-/-Grey-/-Mic-Copy">
                    <g transform="translate(9.000000, 7.000000)">
                        <g id="Attachment" transform="translate(0.500000, 0.000000)">
                            <rect id="Rectangle-Copy" x="1.5" y="1" width="28" height="28"></rect>
                            <path d="M22,8 L8.5,8 C4.63400675,8 1.5,11.1340068 1.5,15 C1.5,18.8659932 4.63400675,22 8.5,22 L24.5,22 C27.2614237,22 29.5,19.7614237 29.5,17 C29.5,14.2385763 27.2614237,12 24.5,12 L10,12 C8.34314575,12 7,13.3431458 7,15 C7,16.6568542 8.34314575,18 10,18 L22,18 C22.5522847,18 23,17.5522847 23,17 C23,16.4477153 22.5522847,16 22,16 L10,16 C9.44771525,16 9,15.5522847 9,15 C9,14.4477153 9.44771525,14 10,14 L24.5,14 C26.1568542,14 27.5,15.3431458 27.5,17 C27.5,18.6568542 26.1568542,20 24.5,20 L8.5,20 C5.73857625,20 3.5,17.7614237 3.5,15 C3.5,12.2385763 5.73857625,10 8.5,10 L22,10 C22.5522847,10 23,9.55228475 23,9 C23,8.44771525 22.5522847,8 22,8 Z" id="Path-2" fill="#3978FC" transform="translate(15.500000, 15.000000) rotate(-45.000000) translate(-15.500000, -15.000000) "></path>
                        </g>
                    </g>
                </g>
            </g>
        </g>
    </g>
</svg>