<?xml version="1.0" encoding="UTF-8"?>
<svg width="20px" height="28px" viewBox="0 0 20 28" version="1.1" xmlns="http://www.w3.org/2000/svg" xmlns:xlink="http://www.w3.org/1999/xlink">
    <!-- Generator: sketchtool 62 (101010) - https://sketch.com -->
    <title>E3DF4B68-9A02-4EC5-A808-87B9EFFD27A8</title>
    <desc>Created with sketchtool.</desc>
    <g id="Web-Samples" stroke="none" stroke-width="1" fill="none" fill-rule="evenodd" opacity="0.801641555">
        <g id="Web-Chat-samples---Image" transform="translate(-663.000000, -779.000000)">
            <g id="modal">
                <g id="Group-2" transform="translate(658.000000, 779.000000)">
                    <g id="Icons-/-Grey-/-Mic-Copy">
                        <g id="Download" transform="translate(0.500000, 0.000000)">
                            <rect id="Rectangle-Copy" fill-rule="nonzero" x="0.5" y="0" width="28" height="28"></rect>
                            <path d="M21.5,15 L18.5,15 L18.5,25 C18.5,25.5522847 18.2761424,26.0522847 17.9142136,26.4142136 C17.5522847,26.7761424 17.0522847,27 16.5,27 L12.5,27 C11.9477153,27 11.4477153,26.7761424 11.0857864,26.4142136 C10.7238576,26.0522847 10.5,25.5522847 10.5,25 L10.5,15 L7.5,15 C6.94771525,15 6.44771525,14.7761424 6.08578644,14.4142136 C5.72385763,14.0522847 5.5,13.5522847 5.5,13 C5.5,12.5672596 5.64035574,12.1461923 5.9,11.8 L12.9,2.46666667 C13.2313708,2.02483887 13.7104569,1.75915344 14.2171573,1.68676768 C14.7735245,1.60728665 15.3631847,1.76085703 15.8271452,2.17019209 L23.1,11.8 C23.4313708,12.2418278 23.5522847,12.7761424 23.479899,13.2828427 C23.4075132,13.7895431 23.1418278,14.2686292 22.7,14.6 C22.3538077,14.8596443 21.9327404,15 21.5,15 Z" id="Triangle" stroke="#FFFFFF" stroke-width="2" fill-opacity="0.35" fill="#FFFFFF" transform="translate(14.500000, 14.000000) rotate(-180.000000) translate(-14.500000, -14.000000) "></path>
                        </g>
                    </g>
                </g>
            </g>
        </g>
    </g>
</svg>