<?xml version="1.0" encoding="UTF-8"?>
<svg width="72px" height="72px" viewBox="0 0 72 72" version="1.1" xmlns="http://www.w3.org/2000/svg" xmlns:xlink="http://www.w3.org/1999/xlink">
    <!-- Generator: sketchtool 62 (101010) - https://sketch.com -->
    <title>FC471D4C-4FD8-486E-A2B4-0033095394D4</title>
    <desc>Created with sketchtool.</desc>
    <g id="Web-Samples" stroke="none" stroke-width="1" fill="none" fill-rule="evenodd">
        <g id="Web-Chat-samples---Attachments---Placeholders" transform="translate(-677.000000, -179.000000)">
            <g id="Chat-/-Panels-/-Smile" transform="translate(573.000000, 48.000000)">
                <g id="Chat-/-Interlocutor-/-Avatar-Copy-2" transform="translate(0.000000, 39.000000)">
                    <g id="bubble" transform="translate(10.000000, 7.000000)">
                        <g id="image" transform="translate(96.000000, 87.000000)">
                            <rect id="Rectangle-Copy" fill-rule="nonzero" x="0" y="0" width="68" height="68"></rect>
                            <circle id="Oval" stroke="#6C7A92" stroke-width="4" fill-opacity="0.35" fill="#6C7A92" stroke-linejoin="round" cx="50" cy="17" r="7"></circle>
                            <rect id="Rectangle" stroke="#6C7A92" stroke-width="4" x="0" y="0" width="68" height="68" rx="8"></rect>
                            <path d="M37.294818,79.5 C28.8716244,77.7613842 22.5819261,75.4583183 18.3905996,72.6641006 C13.6899257,69.530318 11.5,65.7612613 11.5,61.5 C11.5,57.4847066 13.5786834,53.8894724 18.0732099,50.8621075 C21.5575425,48.5151758 26.5688324,46.4960113 33.1285637,44.8512007 C30.3703049,43.3207196 28.226233,41.5656344 26.6736588,39.6129648 C24.5586972,36.9529816 23.5,33.9156105 23.5,30.5 C23.5,26.6548822 25.2394883,23.0493949 28.9164103,19.7595174 C32.284159,16.7462685 37.3474466,13.9733959 44.1453985,11.5 L46.5,11.5 C49.2614237,11.5 51.7614237,12.6192881 53.5710678,14.4289322 C55.3807119,16.2385763 56.5,18.7385763 56.5,21.5 L56.5,69.5 C56.5,72.2614237 55.3807119,74.7614237 53.5710678,76.5710678 C51.7614237,78.3807119 49.2614237,79.5 46.5,79.5 L37.294818,79.5 Z" id="Triangle" stroke="#6C7A92" stroke-width="4" fill-opacity="0.35" fill="#6C7A92" stroke-linejoin="round" transform="translate(34.000000, 45.500000) rotate(-270.000000) translate(-34.000000, -45.500000) "></path>
                        </g>
                    </g>
                </g>
            </g>
        </g>
    </g>
</svg>