<?xml version="1.0" encoding="UTF-8"?>
<svg width="4px" height="18px" viewBox="0 0 4 18" version="1.1" xmlns="http://www.w3.org/2000/svg" xmlns:xlink="http://www.w3.org/1999/xlink">
    <!-- Generator: sketchtool 62 (101010) - https://sketch.com -->
    <title>266AA0EC-0515-42CE-B738-849353FABBBF</title>
    <desc>Created with sketchtool.</desc>
    <g id="Web-Samples" stroke="none" stroke-width="1" fill="none" fill-rule="evenodd">
        <g id="Web-Chat-samples---Selected-1-1-chat" transform="translate(-1154.000000, -15.000000)" fill-rule="nonzero">
            <g id="Nav-bar">
                <g id="Light-background">
                    <g id="More" transform="translate(1142.000000, 10.000000)">
                        <rect id="Rectangle-Copy" x="0" y="0" width="28" height="28"></rect>
                        <path d="M5.5625,12.59375 C5.95833531,12.1979147 6.43749719,12 7,12 C7.56250281,12 8.03645641,12.1927064 8.421875,12.578125 C8.80729359,12.9635436 9,13.4374972 9,14 C9,14.5625028 8.80729359,15.0364564 8.421875,15.421875 C8.03645641,15.8072936 7.56250281,16 7,16 C6.43749719,16 5.96354359,15.8072936 5.578125,15.421875 C5.19270641,15.0364564 5,14.5625028 5,14 C5,13.4374972 5.18749812,12.9687519 5.5625,12.59375 Z M12.5625,12.59375 C12.9583353,12.1979147 13.4374972,12 14,12 C14.5625028,12 15.0364564,12.1927064 15.421875,12.578125 C15.8072936,12.9635436 16,13.4374972 16,14 C16,14.5625028 15.8072936,15.0364564 15.421875,15.421875 C15.0364564,15.8072936 14.5625028,16 14,16 C13.4374972,16 12.9635436,15.8072936 12.578125,15.421875 C12.1927064,15.0364564 12,14.5625028 12,14 C12,13.4374972 12.1874981,12.9687519 12.5625,12.59375 Z M19.5625,12.59375 C19.9583353,12.1979147 20.4374972,12 21,12 C21.5625028,12 22.0364564,12.1927064 22.421875,12.578125 C22.8072936,12.9635436 23,13.4374972 23,14 C23,14.5625028 22.8072936,15.0364564 22.421875,15.421875 C22.0364564,15.8072936 21.5625028,16 21,16 C20.4374972,16 19.9635436,15.8072936 19.578125,15.421875 C19.1927064,15.0364564 19,14.5625028 19,14 C19,13.4374972 19.1874981,12.9687519 19.5625,12.59375 Z" fill="#FFFFFF" transform="translate(14.000000, 14.000000) rotate(90.000000) translate(-14.000000, -14.000000) "></path>
                    </g>
                </g>
            </g>
        </g>
    </g>
</svg>