<?xml version="1.0" encoding="UTF-8"?>
<svg width="150px" height="30px" viewBox="0 0 150 30" version="1.1" xmlns="http://www.w3.org/2000/svg" xmlns:xlink="http://www.w3.org/1999/xlink">
    <!-- Generator: sketchtool 62 (101010) - https://sketch.com -->
    <title>09BC0E2F-B0DB-4357-B9B2-3BECE61871C4</title>
    <desc>Created with sketchtool.</desc>
    <g id="Web-Samples" stroke="none" stroke-width="1" fill="none" fill-rule="evenodd">
        <g id="Web-Chat-samples---Login" transform="translate(-279.000000, -11.000000)" fill="#FFFFFF">
            <g id="Nav-bar" transform="translate(1.000000, 0.000000)">
                <g id="Light-background">
                    <path d="M306.949087,31 C307.501371,31 307.949087,31.4477153 307.949087,32 L307.949087,40 C307.949087,40.5522847 307.501371,41 306.949087,41 L298.966058,41 C298.413773,41 297.966058,40.5522847 297.966058,40 L297.966058,32 C297.966058,31.4477153 298.413773,31 298.966058,31 L306.949087,31 Z M284.487272,31 C285.039556,31 285.487272,31.4477153 285.487272,32 L285.487272,37.5 C285.487272,38.0522847 285.039556,38.5 284.487272,38.5 L279,38.5 C278.447715,38.5 278,38.0522847 278,37.5 L278,32 C278,31.4477153 278.447715,31 279,31 L284.487272,31 Z M294.4703,31 C295.022585,31 295.4703,31.4477153 295.4703,32 L295.4703,37.5 C295.4703,38.0522847 295.022585,38.5 294.4703,38.5 L288.983029,38.5 C288.430744,38.5 287.983029,38.0522847 287.983029,37.5 L287.983029,32 C287.983029,31.4477153 288.430744,31 288.983029,31 L294.4703,31 Z M320.887092,19.11 C321.655789,19.11 322.377056,19.2549986 323.050913,19.545 C323.724771,19.8350015 324.313764,20.2324975 324.81791,20.7375 C325.322055,21.2425025 325.718876,21.8324966 326.008386,22.5075 C326.297895,23.1825034 326.442647,23.9049962 326.442647,24.675 C326.442647,25.3150032 326.340322,25.9199972 326.135669,26.49 C325.931016,27.0600029 325.65399,27.5799977 325.304582,28.05 L326.218029,28.965 L325.184786,30 L324.271339,29.085 C323.792151,29.4450018 323.268047,29.727499 322.699012,29.9325 C322.129976,30.137501 321.526009,30.24 320.887092,30.24 C320.118395,30.24 319.397128,30.0950015 318.72327,29.805 C318.049413,29.5149986 317.46042,29.1175025 316.956274,28.6125 C316.452129,28.1074975 316.055307,27.5175034 315.765798,26.8425 C315.476289,26.1674966 315.331536,25.4450039 315.331536,24.675 C315.331536,23.9049962 315.476289,23.1825034 315.765798,22.5075 C316.055307,21.8324966 316.452129,21.2425025 316.956274,20.7375 C317.46042,20.2324975 318.049413,19.8350015 318.72327,19.545 C319.397128,19.2549986 320.118395,19.11 320.887092,19.11 Z M332.791854,19.35 L332.791854,25.77 C332.791854,26.1800021 332.869222,26.5649982 333.023959,26.925 C333.178697,27.2850018 333.390834,27.5999987 333.660377,27.87 C333.92992,28.1400014 334.244383,28.3524992 334.603774,28.5075 C334.963164,28.6625008 335.347507,28.74 335.756813,28.74 C336.16612,28.74 336.550462,28.6625008 336.909853,28.5075 C337.269244,28.3524992 337.583706,28.1400014 337.853249,27.87 C338.122793,27.5999987 338.33493,27.2850018 338.489668,26.925 C338.644405,26.5649982 338.721773,26.1800021 338.721773,25.77 L338.721773,19.35 L340.219227,19.35 L340.219227,25.77 C340.219227,26.3900031 340.101928,26.9699973 339.867326,27.51 C339.632723,28.0500027 339.313269,28.522498 338.908955,28.9275 C338.50464,29.332502 338.030451,29.6524988 337.486373,29.8875 C336.942295,30.1225012 336.365781,30.24 335.756813,30.24 C335.137863,30.24 334.558853,30.1225012 334.019766,29.8875 C333.48068,29.6524988 333.008987,29.332502 332.604672,28.9275 C332.200357,28.522498 331.880904,28.0500027 331.646301,27.51 C331.411699,26.9699973 331.2944,26.3900031 331.2944,25.77 L331.2944,19.35 L332.791854,19.35 Z M357.799341,19.11 C358.558055,19.11 359.264347,19.2499986 359.918239,19.53 C360.572131,19.8100014 361.153636,20.1949976 361.662773,20.685 L360.614555,21.75 C360.245181,21.3999983 359.820907,21.122501 359.341719,20.9175 C358.862531,20.712499 358.34841,20.61 357.799341,20.61 C357.240289,20.61 356.713689,20.7174989 356.219527,20.9325 C355.725364,21.1475011 355.293603,21.4374982 354.924229,21.8025 C354.554855,22.1675018 354.26535,22.5974975 354.055705,23.0925 C353.846061,23.5875025 353.74124,24.1149972 353.74124,24.675 C353.74124,25.2350028 353.846061,25.7624975 354.055705,26.2575 C354.26535,26.7525025 354.554855,27.1849982 354.924229,27.555 C355.293603,27.9250019 355.725364,28.214999 356.219527,28.425 C356.713689,28.6350011 357.240289,28.74 357.799341,28.74 C358.34841,28.74 358.862531,28.637501 359.341719,28.4325 C359.820907,28.227499 360.245181,27.9500018 360.614555,27.6 L361.662773,28.665 C361.153636,29.1550025 360.569635,29.5399986 359.910752,29.82 C359.251869,30.1000014 358.548072,30.24 357.799341,30.24 C357.030644,30.24 356.309377,30.0950015 355.63552,29.805 C354.961662,29.5149986 354.372669,29.1175025 353.868524,28.6125 C353.364378,28.1074975 352.967557,27.5175034 352.678047,26.8425 C352.388538,26.1674966 352.243786,25.4450039 352.243786,24.675 C352.243786,23.9049962 352.388538,23.1825034 352.678047,22.5075 C352.967557,21.8324966 353.364378,21.2425025 353.868524,20.7375 C354.372669,20.2324975 354.961662,19.8350015 355.63552,19.545 C356.309377,19.2549986 357.030644,19.11 357.799341,19.11 Z M409.940701,19.11 C410.709398,19.11 411.430664,19.2549986 412.104522,19.545 C412.77838,19.8350015 413.367373,20.2324975 413.871518,20.7375 C414.375664,21.2425025 414.772485,21.8324966 415.061995,22.5075 C415.351504,23.1825034 415.496256,23.9049962 415.496256,24.675 C415.496256,25.4450039 415.351504,26.1674966 415.061995,26.8425 C414.772485,27.5175034 414.375664,28.1074975 413.871518,28.6125 C413.367373,29.1175025 412.77838,29.5149986 412.104522,29.805 C411.430664,30.0950015 410.709398,30.24 409.940701,30.24 C409.172004,30.24 408.450737,30.0950015 407.776879,29.805 C407.103021,29.5149986 406.514029,29.1175025 406.009883,28.6125 C405.505738,28.1074975 405.108916,27.5175034 404.819407,26.8425 C404.529898,26.1674966 404.385145,25.4450039 404.385145,24.675 C404.385145,23.9049962 404.529898,23.1825034 404.819407,22.5075 C405.108916,21.8324966 405.505738,21.2425025 406.009883,20.7375 C406.514029,20.2324975 407.103021,19.8350015 407.776879,19.545 C408.450737,19.2549986 409.172004,19.11 409.940701,19.11 Z M347.257263,19.35 L347.257263,30 L345.759808,30 L345.759808,19.35 L347.257263,19.35 Z M367.892183,19.35 L367.892183,24.225 L372.669063,19.35 L374.765499,19.35 L370.362983,23.85 L374.765499,30 L372.908655,30 L369.314765,24.93 L367.892183,26.385 L367.892183,30 L366.394729,30 L366.394729,19.35 L367.892183,19.35 Z M384.55885,19.35 C384.978139,19.35 385.372465,19.4299992 385.741839,19.59 C386.111213,19.7500008 386.433162,19.9674986 386.707697,20.2425 C386.982232,20.5175014 387.19936,20.8399982 387.35909,21.21 C387.518819,21.5800019 387.598682,21.9749979 387.598682,22.395 C387.598682,22.785002 387.528802,23.1524983 387.389039,23.4975 C387.249276,23.8425017 387.0596,24.1499987 386.820006,24.42 C387.239295,24.6900014 387.576219,25.0474978 387.830788,25.4925 C388.085356,25.9375022 388.212639,26.4299973 388.212639,26.97 C388.212639,27.3900021 388.132775,27.7849982 387.973046,28.155 C387.813317,28.5250019 387.596188,28.8449987 387.321653,29.115 C387.047119,29.3850014 386.725169,29.5999992 386.355795,29.76 C385.986421,29.9200008 385.592096,30 385.172806,30 L379.212938,30 L379.212938,19.35 L384.55885,19.35 Z M394.71159,19.35 L394.71159,28.5 L401.000898,28.5 L401.000898,30 L393.214136,30 L393.214136,19.35 L394.71159,19.35 Z M420.692423,19.35 L423.447739,23.37 L426.203055,19.35 L428,19.35 L424.346211,24.675 L428,30 L426.203055,30 L423.447739,25.995 L420.692423,30 L418.895478,30 L422.549266,24.675 L418.895478,19.35 L420.692423,19.35 Z M320.887092,20.61 C320.32804,20.61 319.80144,20.7174989 319.307278,20.9325 C318.813115,21.1475011 318.381354,21.4374982 318.01198,21.8025 C317.642606,22.1675018 317.353101,22.5974975 317.143456,23.0925 C316.933811,23.5875025 316.828991,24.1149972 316.828991,24.675 C316.828991,25.2350028 316.933811,25.7624975 317.143456,26.2575 C317.353101,26.7525025 317.642606,27.1849982 318.01198,27.555 C318.381354,27.9250019 318.813115,28.214999 319.307278,28.425 C319.80144,28.6350011 320.32804,28.74 320.887092,28.74 C321.316364,28.74 321.725664,28.6775006 322.115004,28.5525 C322.504345,28.4274994 322.86373,28.2500012 323.193172,28.02 L322.294699,27.105 L323.312968,26.07 L324.226415,26.985 C324.456026,26.6649984 324.633223,26.310002 324.758011,25.92 C324.8828,25.5299981 324.945193,25.1150022 324.945193,24.675 C324.945193,24.1149972 324.837877,23.5875025 324.62324,23.0925 C324.408604,22.5974975 324.119099,22.1675018 323.754717,21.8025 C323.390335,21.4374982 322.961069,21.1475011 322.466906,20.9325 C321.972744,20.7174989 321.446144,20.61 320.887092,20.61 Z M409.940701,20.61 C409.381648,20.61 408.855049,20.7174989 408.360886,20.9325 C407.866724,21.1475011 407.434962,21.4374982 407.065588,21.8025 C406.696215,22.1675018 406.40671,22.5974975 406.197065,23.0925 C405.98742,23.5875025 405.8826,24.1149972 405.8826,24.675 C405.8826,25.2350028 405.98742,25.7624975 406.197065,26.2575 C406.40671,26.7525025 406.696215,27.1849982 407.065588,27.555 C407.434962,27.9250019 407.866724,28.214999 408.360886,28.425 C408.855049,28.6350011 409.381648,28.74 409.940701,28.74 C410.499753,28.74 411.026353,28.6350011 411.520515,28.425 C412.014678,28.214999 412.443943,27.9250019 412.808326,27.555 C413.172708,27.1849982 413.462213,26.7525025 413.676849,26.2575 C413.891486,25.7624975 413.998802,25.2350028 413.998802,24.675 C413.998802,24.1149972 413.891486,23.5875025 413.676849,23.0925 C413.462213,22.5974975 413.172708,22.1675018 412.808326,21.8025 C412.443943,21.4374982 412.014678,21.1475011 411.520515,20.9325 C411.026353,20.7174989 410.499753,20.61 409.940701,20.61 Z M304.453329,21 C305.005614,21 305.453329,21.4477153 305.453329,22 L305.453329,27.5 C305.453329,28.0522847 305.005614,28.5 304.453329,28.5 L298.966058,28.5 C298.413773,28.5 297.966058,28.0522847 297.966058,27.5 L297.966058,22 C297.966058,21.4477153 298.413773,21 298.966058,21 L304.453329,21 Z M284.487272,21 C285.039556,21 285.487272,21.4477153 285.487272,22 L285.487272,27.5 C285.487272,28.0522847 285.039556,28.5 284.487272,28.5 L279,28.5 C278.447715,28.5 278,28.0522847 278,27.5 L278,22 C278,21.4477153 278.447715,21 279,21 L284.487272,21 Z M385.172806,25.425 L380.710392,25.425 L380.710392,28.5 L385.172806,28.5 C385.382451,28.5 385.582109,28.4600004 385.771788,28.38 C385.961466,28.2999996 386.126185,28.1925007 386.265948,28.0575 C386.405711,27.9224993 386.515523,27.760001 386.595388,27.57 C386.675252,27.3799991 386.715184,27.1800011 386.715184,26.97 C386.715184,26.759999 386.675252,26.560001 386.595388,26.37 C386.515523,26.1799991 386.405711,26.0150007 386.265948,25.875 C386.126185,25.7349993 385.961466,25.6250004 385.771788,25.545 C385.582109,25.4649996 385.382451,25.425 385.172806,25.425 Z M384.55885,20.85 L380.710392,20.85 L380.710392,23.925 L384.55885,23.925 C384.768495,23.925 384.968153,23.8850004 385.157832,23.805 C385.34751,23.7249996 385.512229,23.6175007 385.651992,23.4825 C385.791755,23.3474993 385.901567,23.185001 385.981432,22.995 C386.061296,22.8049991 386.101228,22.6050011 386.101228,22.395 C386.101228,22.184999 386.061296,21.985001 385.981432,21.795 C385.901567,21.6049991 385.791755,21.4400007 385.651992,21.3 C385.512229,21.1599993 385.34751,21.0500004 385.157832,20.97 C384.968153,20.8899996 384.768495,20.85 384.55885,20.85 Z M304.453329,11 C305.005614,11 305.453329,11.4477153 305.453329,12 L305.453329,17.5 C305.453329,18.0522847 305.005614,18.5 304.453329,18.5 L298.966058,18.5 C298.413773,18.5 297.966058,18.0522847 297.966058,17.5 L297.966058,12 C297.966058,11.4477153 298.413773,11 298.966058,11 L304.453329,11 Z M294.4703,11 C295.022585,11 295.4703,11.4477153 295.4703,12 L295.4703,17.5 C295.4703,18.0522847 295.022585,18.5 294.4703,18.5 L288.983029,18.5 C288.430744,18.5 287.983029,18.0522847 287.983029,17.5 L287.983029,12 C287.983029,11.4477153 288.430744,11 288.983029,11 L294.4703,11 Z M284.487272,11 C285.039556,11 285.487272,11.4477153 285.487272,12 L285.487272,17.5 C285.487272,18.0522847 285.039556,18.5 284.487272,18.5 L279,18.5 C278.447715,18.5 278,18.0522847 278,17.5 L278,12 C278,11.4477153 278.447715,11 279,11 L284.487272,11 Z" id="qb-logo"></path>
                </g>
            </g>
        </g>
    </g>
</svg>