<?xml version="1.0" encoding="UTF-8"?>
<svg width="27px" height="26px" viewBox="0 0 27 26" version="1.1" xmlns="http://www.w3.org/2000/svg" xmlns:xlink="http://www.w3.org/1999/xlink">
    <!-- Generator: sketchtool 62 (101010) - https://sketch.com -->
    <title>F8B31F4A-21E2-457A-A528-EB8EA7BED37A</title>
    <desc>Created with sketchtool.</desc>
    <g id="Web-Samples" stroke="none" stroke-width="1" fill="none" fill-rule="evenodd">
        <g id="Web-Chat-samples---Selected-1-1-chat" transform="translate(-1131.000000, -840.000000)">
            <g id="Chat-/-Panels-/-Smile" transform="translate(573.000000, 48.000000)">
                <g transform="translate(1.000000, 783.000000)" id="Icons-/-Grey-/-Mic-Copy">
                    <g transform="translate(555.000000, 8.000000)">
                        <g id="Send" transform="translate(0.500000, 0.000000)">
                            <rect id="Rectangle-Copy" fill-rule="nonzero" x="0.5" y="0" width="28" height="28"></rect>
                            <path d="M26.7597647,24.1666906 C26.9898768,24.6687532 26.9947031,25.216557 26.8164856,25.6963731 C26.6124589,26.2456757 26.1685332,26.705873 25.5480891,26.9063249 L19.3171973,26.999981 C18.8423359,27.0020395 18.3995262,26.8370372 18.0510607,26.5553322 C17.7047442,26.2753644 17.4516118,25.880129 17.352811,25.4190582 L15.5,16.772607 L13.647189,25.4190582 C13.5483882,25.880129 13.2952558,26.2753644 12.9489393,26.5553322 C12.6026228,26.8352999 12.163122,27 11.6915842,27 L6.0583649,27 C5.50608015,27 5.00608015,26.7761424 4.64415134,26.4142136 C4.22840714,25.9984694 3.99484649,25.4005416 4.07349463,24.7504556 L13.6818704,3.56675945 C13.9119824,3.06469681 14.3238108,2.70343573 14.8036269,2.52521833 C15.283443,2.34700092 15.8312468,2.35182718 16.3333094,2.58193922 C16.7689723,2.78161806 17.1184508,3.13109654 17.3181296,3.56675945 L26.7597647,24.1666906 Z" id="Triangle" stroke="#2675FF" stroke-width="2" fill-opacity="0.35" fill="#0072FF" transform="translate(15.500000, 14.000000) rotate(-270.000000) translate(-15.500000, -14.000000) "></path>
                        </g>
                    </g>
                </g>
            </g>
        </g>
    </g>
</svg>