<?xml version="1.0" encoding="UTF-8"?>
<svg width="22px" height="22px" viewBox="0 0 22 22" version="1.1" xmlns="http://www.w3.org/2000/svg"
>
  <!-- Generator: Sketch 41.2 (35397) - http://www.bohemiancoding.com/sketch -->
  <title>qblogo-grey</title>
  <desc>Created with Sketch.</desc>
  <defs></defs>
  <g id="Screens" stroke="none" stroke-width="1" fill="none" fill-rule="evenodd">
    <g id="Login" transform="translate(-512.000000, -592.000000)" fill="#C5CACE">
      <g id="qblogo-grey" transform="translate(512.000000, 592.000000)">
        <g id="logo_qb-3">
          <path
            d="M0,1.03487906 C0,0.463331137 0.459978512,0 1.03644965,0 L4.14679642,0 C4.71921176,0 5.18324607,0.464846009 5.18324607,1.03487906 L5.18324607,4.20321618 C5.18324607,4.7747641 4.72326756,5.23809524 4.14679642,5.23809524 L1.03644965,5.23809524 C0.464034315,5.23809524 0,4.77324923 0,4.20321618 L0,1.03487906 Z M0,7.84440287 C0,7.27285495 0.459978512,6.80952381 1.03644965,6.80952381 L4.14679642,6.80952381 C4.71921176,6.80952381 5.18324607,7.27436982 5.18324607,7.84440287 L5.18324607,11.01274 C5.18324607,11.5842879 4.72326756,12.047619 4.14679642,12.047619 L1.03644965,12.047619 C0.464034315,12.047619 0,11.582773 0,11.01274 L0,7.84440287 Z M6.7382199,1.03487906 C6.7382199,0.463331137 7.19819841,0 7.77466955,0 L10.8850163,0 C11.4574317,0 11.921466,0.464846009 11.921466,1.03487906 L11.921466,4.20321618 C11.921466,4.7747641 11.4614875,5.23809524 10.8850163,5.23809524 L7.77466955,5.23809524 C7.20225421,5.23809524 6.7382199,4.77324923 6.7382199,4.20321618 L6.7382199,1.03487906 Z M13.4764398,1.03487906 C13.4764398,0.463331137 13.9364183,0 14.5128894,0 L17.6232362,0 C18.1956515,0 18.6596859,0.464846009 18.6596859,1.03487906 L18.6596859,4.20321618 C18.6596859,4.7747641 18.1997074,5.23809524 17.6232362,5.23809524 L14.5128894,5.23809524 C13.9404741,5.23809524 13.4764398,4.77324923 13.4764398,4.20321618 L13.4764398,1.03487906 Z M13.4764398,7.84440287 C13.4764398,7.27285495 13.9364183,6.80952381 14.5128894,6.80952381 L17.6232362,6.80952381 C18.1956515,6.80952381 18.6596859,7.27436982 18.6596859,7.84440287 L18.6596859,11.01274 C18.6596859,11.5842879 18.1997074,12.047619 17.6232362,12.047619 L14.5128894,12.047619 C13.9404741,12.047619 13.4764398,11.582773 13.4764398,11.01274 L13.4764398,7.84440287 Z M0,14.6539267 C0,14.0823788 0.459978512,13.6190476 1.03644965,13.6190476 L4.14679642,13.6190476 C4.71921176,13.6190476 5.18324607,14.0838936 5.18324607,14.6539267 L5.18324607,17.8222638 C5.18324607,18.3938117 4.72326756,18.8571429 4.14679642,18.8571429 L1.03644965,18.8571429 C0.464034315,18.8571429 0,18.3922968 0,17.8222638 L0,14.6539267 Z M6.7382199,14.6539267 C6.7382199,14.0823788 7.19819841,13.6190476 7.77466955,13.6190476 L10.8850163,13.6190476 C11.4574317,13.6190476 11.921466,14.0838936 11.921466,14.6539267 L11.921466,17.8222638 C11.921466,18.3938117 11.4614875,18.8571429 10.8850163,18.8571429 L7.77466955,18.8571429 C7.20225421,18.8571429 6.7382199,18.3922968 6.7382199,17.8222638 L6.7382199,14.6539267 Z M13.4764398,14.6467169 C13.4764398,14.0791508 13.9460795,13.6190476 14.5100103,13.6190476 L20.736063,13.6190476 C21.3068882,13.6190476 21.7696335,14.081582 21.7696335,14.6467169 L21.7696335,20.9723307 C21.7696335,21.5398968 21.2999938,22 20.736063,22 L14.5100103,22 C13.9391851,22 13.4764398,21.5374656 13.4764398,20.9723307 L13.4764398,14.6467169 Z"
            id="Rectangle-2"></path>
        </g>
      </g>
    </g>
  </g>
</svg>
